<svg width="16" height="16" viewBox="0 0 16 16" fill="none" xmlns="http://www.w3.org/2000/svg">
<path d="M0 3.81256L0.567065 2.84586L2.26826 3.99382L2.07924 2H3.27637L3.08735 3.99382L4.78855 2.84586L5.35561 3.81256L3.4654 4.65842L5.35561 5.50428L4.78855 6.47098L3.08735 5.32303L3.27637 7.31684H2.07924L2.26826 5.32303L0.567065 6.47098L0 5.50428L1.89022 4.65842L0 3.81256Z" fill="#000205"/>
<path d="M11.5992 2.54382C13.9935 2.54382 15.4426 3.93345 15.7577 6.16895H14.3715C14.1195 4.53764 12.9853 3.7522 11.5992 3.7522C9.89799 3.7522 8.82686 4.96057 8.82686 7.25648V9.31072C8.82686 11.667 9.89799 12.8754 11.5992 12.8754C13.0483 12.8754 14.1195 12.0296 14.3715 10.2774H15.7577C15.5056 12.5733 13.9935 14.0234 11.5992 14.0234C8.82686 14.0234 7.44071 12.1504 7.44071 9.2503V7.3169C7.3777 4.4168 8.82686 2.54382 11.5992 2.54382Z" fill="#000205"/>
</svg>
